<svg width="16" height="16" viewBox="0 0 16 16" fill="none" xmlns="http://www.w3.org/2000/svg">
<path d="M14.08 6.58662C14.0521 6.49804 13.9998 6.41914 13.929 6.359C13.8582 6.29885 13.7719 6.2599 13.68 6.24662L10.0667 5.71995L8.44668 2.44662C8.40057 2.36927 8.33517 2.30522 8.25687 2.26074C8.17857 2.21626 8.09006 2.19287 8.00001 2.19287C7.90996 2.19287 7.82145 2.21626 7.74316 2.26074C7.66486 2.30522 7.59945 2.36927 7.55335 2.44662L5.93335 5.71995L2.32001 6.24662C2.2281 6.2599 2.14179 6.29885 2.07103 6.359C2.00027 6.41914 1.94792 6.49804 1.92001 6.58662C1.89022 6.67487 1.88566 6.76969 1.90686 6.86039C1.92807 6.95109 1.97418 7.03406 2.04001 7.09995L4.66668 9.64662L4.04668 13.2466C4.03096 13.3393 4.04135 13.4345 4.07667 13.5217C4.11199 13.6088 4.17086 13.6844 4.24668 13.74C4.32262 13.7941 4.41219 13.8259 4.50526 13.8318C4.59832 13.8377 4.69118 13.8174 4.77335 13.7733L8.00001 12.0733L11.2333 13.7733C11.3049 13.8125 11.3851 13.8332 11.4667 13.8333C11.5715 13.8317 11.6735 13.7992 11.76 13.74C11.8358 13.6844 11.8947 13.6088 11.93 13.5217C11.9653 13.4345 11.9757 13.3393 11.96 13.2466L11.3333 9.64662L13.9533 7.09995C14.0203 7.03478 14.0677 6.95213 14.0901 6.8614C14.1125 6.77067 14.109 6.67547 14.08 6.58662Z" fill="#EBAD1E"/>
</svg>
