<svg width="24" height="25" viewBox="0 0 24 25" fill="none" xmlns="http://www.w3.org/2000/svg">
<g clip-path="url(#clip0_329_836)">
<path d="M10.0776 18.026L11.6652 19.3976C12.0132 19.6988 12.0528 20.2268 11.7552 20.5784C11.6844 20.6615 11.5979 20.7298 11.5006 20.7793C11.4033 20.8289 11.2972 20.8587 11.1883 20.867C11.0795 20.8754 10.97 20.8622 10.8663 20.8281C10.7626 20.794 10.6667 20.7397 10.584 20.6684L8.706 19.046C8.61476 18.9671 8.5416 18.8694 8.49149 18.7596C8.44137 18.6499 8.41549 18.5306 8.4156 18.41V10.0256L1.4052 1.886C0.936 1.3436 1.32 0.5 2.0328 0.5H21.9672C22.68 0.5 23.0616 1.3448 22.5948 1.886L15.5748 10.0268V23.6624C15.5748 24.1256 15.2028 24.5 14.7444 24.5C14.6349 24.4995 14.5265 24.4775 14.4255 24.4351C14.3245 24.3928 14.2328 24.331 14.1557 24.2532C14.0786 24.1754 14.0176 24.0832 13.9761 23.9818C13.9346 23.8805 13.9135 23.7719 13.914 23.6624V9.7136C13.9138 9.51185 13.9862 9.31676 14.118 9.164L20.1456 2.174H3.852L9.8736 9.164C10.0054 9.31676 10.0778 9.51185 10.0776 9.7136V18.026Z" fill="black"/>
</g>
<defs>
<clipPath id="clip0_329_836">
<rect width="24" height="24" fill="white" transform="translate(0 0.5)"/>
</clipPath>
</defs>
</svg>
