<svg width="16" height="16" viewBox="0 0 16 16" fill="none" xmlns="http://www.w3.org/2000/svg">
<g clip-path="url(#clip0_6_3568)">
<path d="M7.56055 4.54297C7.23828 4.54297 6.92578 4.58447 6.62305 4.66748C6.32031 4.75049 6.02734 4.87988 5.74414 5.05566C5.4707 5.21191 5.22168 5.3999 4.99707 5.61963C4.77246 5.83936 4.57715 6.09082 4.41113 6.37402C4.25488 6.64746 4.1377 6.93311 4.05957 7.23096C3.98145 7.52881 3.94238 7.84375 3.94238 8.17578C3.94238 8.49805 3.98145 8.81299 4.05957 9.12061C4.1377 9.42822 4.25488 9.72363 4.41113 10.0068C4.57715 10.2803 4.77246 10.5269 4.99707 10.7466C5.22168 10.9663 5.4707 11.1592 5.74414 11.3252C6.02734 11.4814 6.32031 11.6011 6.62305 11.6841C6.92578 11.7671 7.23828 11.8086 7.56055 11.8086C7.89258 11.8086 8.20752 11.7671 8.50537 11.6841C8.80322 11.6011 9.08887 11.4814 9.3623 11.3252C9.64551 11.1592 9.89941 10.9663 10.124 10.7466C10.3486 10.5269 10.5391 10.2803 10.6953 10.0068C10.8613 9.72363 10.9858 9.42822 11.0688 9.12061C11.1519 8.81299 11.1934 8.49805 11.1934 8.17578C11.1934 7.84375 11.1519 7.52881 11.0688 7.23096C10.9858 6.93311 10.8613 6.64746 10.6953 6.37402C10.5391 6.09082 10.3486 5.83936 10.124 5.61963C9.89941 5.3999 9.64551 5.21191 9.3623 5.05566C9.08887 4.87988 8.80322 4.75049 8.50537 4.66748C8.20752 4.58447 7.89258 4.54297 7.56055 4.54297ZM7.56055 10.5342C7.23828 10.5342 6.93799 10.478 6.65967 10.3657C6.38135 10.2534 6.125 10.0801 5.89062 9.8457C5.66602 9.61133 5.49512 9.35498 5.37793 9.07666C5.26074 8.79834 5.20215 8.49805 5.20215 8.17578C5.20215 7.84375 5.26074 7.53857 5.37793 7.26025C5.49512 6.98193 5.66602 6.73047 5.89062 6.50586C6.125 6.27148 6.38135 6.0957 6.65967 5.97852C6.93799 5.86133 7.23828 5.80273 7.56055 5.80273C7.89258 5.80273 8.19775 5.86133 8.47607 5.97852C8.75439 6.0957 9.01074 6.27148 9.24512 6.50586C9.46973 6.73047 9.64062 6.98193 9.75781 7.26025C9.875 7.53857 9.93359 7.84375 9.93359 8.17578C9.93359 8.49805 9.875 8.79834 9.75781 9.07666C9.64062 9.35498 9.46973 9.61133 9.24512 9.8457C9.01074 10.0801 8.75439 10.2534 8.47607 10.3657C8.19775 10.478 7.89258 10.5342 7.56055 10.5342ZM12.2041 4.38184C12.1943 4.49902 12.165 4.60889 12.1162 4.71143C12.0674 4.81396 12.0039 4.9043 11.9258 4.98242C11.8477 5.07031 11.7622 5.13623 11.6694 5.18018C11.5767 5.22412 11.4717 5.24609 11.3545 5.24609C11.2373 5.24609 11.1299 5.22412 11.0322 5.18018C10.9346 5.13623 10.8418 5.07031 10.7539 4.98242C10.666 4.9043 10.6025 4.81396 10.5635 4.71143C10.5244 4.60889 10.5049 4.49902 10.5049 4.38184C10.5049 4.27441 10.5244 4.16943 10.5635 4.06689C10.6025 3.96436 10.666 3.86914 10.7539 3.78125C10.8418 3.70312 10.9346 3.64209 11.0322 3.59814C11.1299 3.5542 11.2373 3.53223 11.3545 3.53223C11.4717 3.53223 11.5791 3.5542 11.6768 3.59814C11.7744 3.64209 11.8672 3.70312 11.9551 3.78125C12.0332 3.86914 12.0942 3.96436 12.1382 4.06689C12.1821 4.16943 12.2041 4.27441 12.2041 4.38184ZM14.6064 5.24609C14.5869 4.93359 14.5527 4.64551 14.5039 4.38184C14.4551 4.11816 14.3916 3.87891 14.3135 3.66406C14.2256 3.40039 14.1084 3.15625 13.9619 2.93164C13.8154 2.70703 13.6396 2.49707 13.4346 2.30176C13.249 2.10645 13.0415 1.93555 12.812 1.78906C12.5825 1.64258 12.3359 1.52051 12.0723 1.42285C11.8574 1.34473 11.6182 1.28613 11.3545 1.24707C11.0908 1.20801 10.8076 1.18359 10.5049 1.17383C10.2119 1.1543 9.81885 1.13721 9.32568 1.12256C8.83252 1.10791 8.24414 1.10059 7.56055 1.10059C6.87695 1.10059 6.28857 1.10791 5.79541 1.12256C5.30225 1.13721 4.9043 1.1543 4.60156 1.17383C4.30859 1.18359 4.03271 1.20801 3.77393 1.24707C3.51514 1.28613 3.27344 1.34473 3.04883 1.42285C2.79492 1.52051 2.55078 1.64258 2.31641 1.78906C2.08203 1.93555 1.86719 2.10645 1.67188 2.30176C1.47656 2.49707 1.30811 2.70703 1.1665 2.93164C1.0249 3.15625 0.910156 3.40039 0.822266 3.66406C0.744141 3.87891 0.680664 4.11816 0.631836 4.38184C0.583008 4.64551 0.548828 4.93359 0.529297 5.24609C0.519531 5.53906 0.512207 5.92969 0.507324 6.41797C0.502441 6.90625 0.5 7.49219 0.5 8.17578C0.5 8.85938 0.502441 9.44775 0.507324 9.94092C0.512207 10.4341 0.519531 10.832 0.529297 11.1348C0.548828 11.4277 0.583008 11.7036 0.631836 11.9624C0.680664 12.2212 0.744141 12.4629 0.822266 12.6875C0.910156 12.9512 1.0249 13.1978 1.1665 13.4272C1.30811 13.6567 1.47656 13.874 1.67188 14.0791C1.86719 14.2646 2.08203 14.4258 2.31641 14.5625C2.55078 14.6992 2.79492 14.8115 3.04883 14.8994C3.27344 14.9775 3.51514 15.041 3.77393 15.0898C4.03271 15.1387 4.30859 15.168 4.60156 15.1777C4.9043 15.1973 5.30225 15.2119 5.79541 15.2217C6.28857 15.2314 6.87695 15.2363 7.56055 15.2363C8.24414 15.2363 8.83252 15.2314 9.32568 15.2217C9.81885 15.2119 10.2119 15.1973 10.5049 15.1777C10.8076 15.168 11.0908 15.1411 11.3545 15.0972C11.6182 15.0532 11.8574 14.9971 12.0723 14.9287C12.3359 14.8311 12.5825 14.7114 12.812 14.5698C13.0415 14.4282 13.249 14.2646 13.4346 14.0791C13.6396 13.874 13.8154 13.6567 13.9619 13.4272C14.1084 13.1978 14.2256 12.9512 14.3135 12.6875C14.3916 12.4629 14.4526 12.2212 14.4966 11.9624C14.5405 11.7036 14.5674 11.4277 14.5771 11.1348C14.5967 10.832 14.6113 10.4341 14.6211 9.94092C14.6309 9.44775 14.6357 8.85938 14.6357 8.17578C14.6357 7.49219 14.6333 6.90625 14.6284 6.41797C14.6235 5.92969 14.6162 5.53906 14.6064 5.24609ZM13.083 12.3359C12.9561 12.6484 12.7803 12.9194 12.5557 13.1489C12.3311 13.3784 12.0576 13.5615 11.7354 13.6982C11.5693 13.7568 11.3423 13.8081 11.0542 13.8521C10.7661 13.896 10.4219 13.9277 10.0215 13.9473C9.80664 13.957 9.53564 13.9644 9.2085 13.9692C8.88135 13.9741 8.50293 13.9766 8.07324 13.9766H7.0625C6.64258 13.9766 6.26904 13.9741 5.94189 13.9692C5.61475 13.9644 5.33398 13.957 5.09961 13.9473C4.71875 13.9277 4.38428 13.896 4.09619 13.8521C3.80811 13.8081 3.57617 13.7568 3.40039 13.6982C3.08789 13.5713 2.81934 13.3955 2.59473 13.1709C2.37012 12.9463 2.18945 12.668 2.05273 12.3359C1.98438 12.1602 1.92822 11.9307 1.88428 11.6475C1.84033 11.3643 1.80859 11.0273 1.78906 10.6367C1.7793 10.4023 1.77197 10.1216 1.76709 9.79443C1.76221 9.46729 1.75977 9.09375 1.75977 8.67383V7.66309C1.75977 7.24316 1.76221 6.87207 1.76709 6.5498C1.77197 6.22754 1.7793 5.94922 1.78906 5.71484C1.80859 5.31445 1.84033 4.97266 1.88428 4.68945C1.92822 4.40625 1.98438 4.18164 2.05273 4.01562C2.16992 3.68359 2.34326 3.40527 2.57275 3.18066C2.80225 2.95605 3.07812 2.78027 3.40039 2.65332C3.57617 2.58496 3.80811 2.53125 4.09619 2.49219C4.38428 2.45312 4.71875 2.42383 5.09961 2.4043C5.33398 2.39453 5.61475 2.38721 5.94189 2.38232C6.26904 2.37744 6.64258 2.375 7.0625 2.375H8.07324C8.49316 2.375 8.8667 2.37744 9.19385 2.38232C9.521 2.38721 9.79688 2.39453 10.0215 2.4043C10.4219 2.42383 10.7661 2.45312 11.0542 2.49219C11.3423 2.53125 11.5693 2.58496 11.7354 2.65332C12.0576 2.78027 12.3311 2.95605 12.5557 3.18066C12.7803 3.40527 12.9561 3.68359 13.083 4.01562C13.1514 4.18164 13.2051 4.40625 13.2441 4.68945C13.2832 4.97266 13.3174 5.31445 13.3467 5.71484C13.3564 5.92969 13.3638 6.20068 13.3687 6.52783C13.3735 6.85498 13.376 7.2334 13.376 7.66309V8.67383C13.376 9.09375 13.3735 9.46729 13.3687 9.79443C13.3638 10.1216 13.3564 10.4023 13.3467 10.6367C13.3174 11.0273 13.2832 11.3643 13.2441 11.6475C13.2051 11.9307 13.1514 12.1602 13.083 12.3359Z" fill="white"/>
</g>
<defs>
<clipPath id="clip0_6_3568">
<rect width="15" height="15" fill="white" transform="matrix(1 0 0 -1 0.5 15.5)"/>
</clipPath>
</defs>
</svg>