<svg xmlns:xlink="http://www.w3.org/1999/xlink" xmlns="http://www.w3.org/2000/svg" class="unf-icon" viewBox="0 0 24 24" width="16" height="16" fill="var(--color-icon-enabled, #2E3137)" style="display: inline-block; vertical-align: middle;"><path fill-rule="evenodd" clip-rule="evenodd" d="M9.5 2.25a.76.76 0 0 1 .75.75v18a.75.75 0 1 1-1.5 0V4.81L5 8.53a.75.75 0 0 1-1 0 .75.75 0 0 1 0-1.06l5-5a.78.78 0 0 1 .21-.16.73.73 0 0 1 .29-.06Zm9.97 13a.75.75 0 0 1 .53 1.28l-5 5a.779.779 0 0 1-.53.22.73.73 0 0 1-.29-.06.711.711 0 0 1-.4-.4.749.749 0 0 1-.06-.29V3a.75.75 0 1 1 1.5 0v16.19l3.72-3.72a.75.75 0 0 1 .53-.22Z" fill="#2E3137"></path></svg>