<svg width="20" height="20" viewBox="0 0 20 20" fill="none" xmlns="http://www.w3.org/2000/svg">
<path d="M18.16 4.68058C15.28 0.240576 9.39998 -1.07942 4.83998 1.68058C0.399979 4.44058 -1.04002 10.4406 1.83998 14.8806L2.07998 15.2406L1.11998 18.8406L4.71998 17.8806L5.07998 18.1206C6.63998 18.9606 8.31998 19.4406 9.99998 19.4406C11.8 19.4406 13.6 18.9606 15.16 18.0006C19.6 15.1206 20.92 9.24058 18.16 4.68058ZM15.64 13.9206C15.16 14.6406 14.56 15.1206 13.72 15.2406C13.24 15.2406 12.64 15.4806 10.24 14.5206C8.19998 13.5606 6.51998 12.0006 5.31998 10.2006C4.59998 9.36058 4.23998 8.28058 4.11998 7.20058C4.11998 6.24058 4.47998 5.40058 5.07998 4.80058C5.31998 4.56058 5.55998 4.44058 5.79998 4.44058H6.39998C6.63998 4.44058 6.87998 4.44058 6.99998 4.92058C7.23998 5.52058 7.83998 6.96058 7.83998 7.08058C7.95998 7.20058 7.95998 7.44058 7.83998 7.56058C7.95998 7.80058 7.83998 8.04058 7.71998 8.16058C7.59998 8.28058 7.47998 8.52058 7.35998 8.64058C7.11998 8.76058 6.99998 9.00058 7.11998 9.24058C7.59998 9.96058 8.19998 10.6806 8.79998 11.2806C9.51998 11.8806 10.24 12.3606 11.08 12.7206C11.32 12.8406 11.56 12.8406 11.68 12.6006C11.8 12.3606 12.4 11.7606 12.64 11.5206C12.88 11.2806 13 11.2806 13.24 11.4006L15.16 12.3606C15.4 12.4806 15.64 12.6006 15.76 12.7206C15.88 13.0806 15.88 13.5606 15.64 13.9206Z" fill="white"/>
</svg>
